<svg id="Capa_1" enable-background="new 0 0 512 512" height="512" viewBox="0 0 512 512" width="512" xmlns="http://www.w3.org/2000/svg"><g><path d="m482 512-420-18.846v-478.154c0-8.284 6.716-15 15-15h420c8.284 0 15 6.716 15 15v467c0 16.569-13.431 30-30 30z" fill="#95c7ee"/><path d="m512 15v467c0 16.57-13.43 30-30 30l-257-11.53v-500.47h272c8.28 0 15 6.72 15 15z" fill="#86bfec"/><path d="m450 75.231c0-8.284-6.716-15-15-15h-420c-8.284 0-15 6.716-15 15v120.923l222 10 228-10z" fill="#b2d7f3"/><path d="m450 75.23v120.92l-225 9.87v-145.79h210c8.28 0 15 6.72 15 15z" fill="#95c7ee"/><path d="m325.31 342.538-10-146.385h-315.31v285.847c0 16.569 13.431 30 30 30h285.31c0-20.056 10-169.462 10-169.462z" fill="#e9f3fb"/><path d="m325.31 342.54s-10 149.4-10 169.46h-90.31v-315.85h90.31z" fill="#d6e9f8"/><path d="m450 480v-283.846h-134.69v202.366 85.56 27.92h166.69c-17.673 0-32-14.327-32-32z" fill="#b2d7f3"/><path d="m376.154 111.846h-300.923c-8.284 0-15 6.716-15 15s6.716 15 15 15h300.923c8.284 0 15-6.716 15-15s-6.716-15-15-15z" fill="#e9f3fb"/><path d="m391.15 126.85c0 8.28-6.71 15-15 15h-151.15v-30h151.15c8.29 0 15 6.71 15 15z" fill="#d6e9f8"/><path d="m46.385 269.539h222.769c8.284 0 15-6.716 15-15s-6.716-15-15-15h-222.769c-8.284 0-15 6.716-15 15s6.716 15 15 15z" fill="#d6e9f8"/><path d="m284.15 254.54c0 8.28-6.71 15-15 15h-44.15v-30h44.15c8.29 0 15 6.71 15 15z" fill="#b2d7f3"/><path d="m186 302.308h-139.846c-8.284 0-15 6.716-15 15s6.716 15 15 15h139.846c8.284 0 15-6.716 15-15s-6.716-15-15-15z" fill="#d6e9f8"/><path d="m315.31 428.52v83.48h-247.17c5.332-5.331 143.277-143.267 146.54-146.53 5.39-5.39 13.97-5.88 19.94-1.13z" fill="#fcc136"/><path d="m315.31 428.52v83.48h-90.31v-150.91c3.38-.07 6.79 1 9.62 3.25z" fill="#e90"/><path d="m312.52 512h-282.52c-16.569 0-30-13.431-30-30v-21.21l94.88-94.91c5.26-5.26 13.59-5.87 19.57-1.42 6.13 4.56 191.28 142.48 198.07 147.54z" fill="#fde47a"/><path d="m312.52 512h-87.52v-65.2c43.71 32.56 84.4 62.88 87.52 65.2z" fill="#fcc136"/><g><g fill="#d6e9f8"><path d="m365.521 271.075h30.479c8.284 0 15-6.716 15-15s-6.716-15-15-15h-30.479c-8.284 0-15 6.716-15 15s6.716 15 15 15z"/><path d="m396 301.129h-30.479c-8.284 0-15 6.716-15 15s6.716 15 15 15h30.479c8.284 0 15-6.716 15-15s-6.716-15-15-15z"/><path d="m396 361.183h-30.479c-8.284 0-15 6.716-15 15s6.716 15 15 15h30.479c8.284 0 15-6.716 15-15s-6.716-15-15-15z"/><path d="m396 421.237h-30.479c-8.284 0-15 6.716-15 15s6.716 15 15 15h30.479c8.284 0 15-6.716 15-15s-6.716-15-15-15z"/></g></g></g></svg>