<svg xmlns="http://www.w3.org/2000/svg" width="218" height="68" viewBox="0 0 218 68" class="vs-logo site-nav__logo-svg" style="color: white">
<path fill="currentColor" d="M203.090676,49.1264682 C203.107045,49.1837315 203.124858,49.2398169 203.139043,49.2990909 C203.125633,49.2430589 203.108578,49.1898756 203.093076,49.1358522 C203.325125,50.0450498 203.443749,51.0469357 203.443749,52.1255569 L203.443749,53.4695916 L191.370597,53.4695916 L191.370597,53.473159 C191.450147,54.7758161 191.928869,55.8780093 192.753491,56.659889 C193.573852,57.4374889 194.68045,57.8484034 195.954673,57.8484034 C196.963255,57.8484034 197.807765,57.6493664 198.464053,57.2562866 C199.11679,56.8653473 199.606166,56.2682362 199.915843,55.4813622 L203.311639,55.4813622 C202.244104,58.9969684 199.596222,60.9324064 195.856656,60.9324064 C193.468732,60.9324064 191.499867,60.1362582 190.00262,58.5660786 C188.526681,56.9844833 187.778767,54.8728375 187.778767,52.2896378 C187.778767,49.7613695 188.526681,47.6604248 190.00262,46.0460138 C191.467194,44.410915 193.436059,43.5805244 195.856656,43.5805244 C198.130227,43.5805244 200.031617,44.3424291 201.354848,45.7820577 C201.83294,46.3024355 202.232182,46.9093439 202.549229,47.5925179 C202.568231,47.6299545 202.588944,47.6657591 202.606342,47.7053686 C202.589044,47.6665678 202.568471,47.6305874 202.54956,47.5932293 C202.65725,47.8253415 202.755454,48.066254 202.84404,48.3155671 C202.865212,48.3684596 202.886735,48.4208897 202.905365,48.4765472 C202.886881,48.421802 202.86555,48.3695989 202.844539,48.316969 C202.937156,48.5777678 203.019252,48.847754 203.090676,49.1264682 Z M183.632721,41.0583705 C183.580151,41.0730337 183.526713,41.0857564 183.472407,41.0964865 C183.467435,41.0972 183.462463,41.0986267 183.457491,41.1000535 C183.316858,41.1264491 183.171963,41.1407169 183.022806,41.1407169 C182.858024,41.1407169 182.693952,41.1221687 182.533432,41.0907794 C182.521357,41.0879258 182.508573,41.0864991 182.495788,41.0836455 C182.337398,41.0501159 182.181848,41.0023185 182.034113,40.9395399 C182.024879,40.9359729 182.016356,40.9309791 182.007123,40.9274121 C181.862228,40.8639201 181.723014,40.7890137 181.595166,40.7005529 C181.591615,40.6976993 181.587354,40.6955591 181.583802,40.6927055 C181.452402,40.6013911 181.333077,40.4972356 181.226536,40.3816658 C181.217303,40.3723916 181.20949,40.3624041 181.200967,40.3524166 C181.12781,40.2696629 181.063175,40.1826288 181.006353,40.0927412 C180.994279,40.0734796 180.982204,40.054218 180.97084,40.0349563 C180.919701,39.9464955 180.877795,39.855181 180.842991,39.761013 C180.836599,39.7424647 180.828076,39.7246299 180.821683,39.7060817 C180.809988,39.6709468 180.799364,39.6354637 180.789837,39.59965 C180.794026,39.6204297 180.798138,39.6412806 180.803926,39.6618513 C180.798069,39.6414854 180.793926,39.6202581 180.789685,39.5990802 C180.736846,39.4001857 180.717808,39.1910994 180.736452,38.9748529 C180.736452,38.3691814 180.968709,37.8298555 181.346572,37.4317817 C181.359357,37.4182272 181.3693,37.4018192 181.382796,37.3882647 C181.453823,37.3176387 181.534794,37.2577136 181.614344,37.1970751 C181.648436,37.1713929 181.678268,37.1407169 181.713781,37.1171749 C181.808957,37.0529695 181.913367,37.0008918 182.019197,36.952381 C182.043346,36.9409666 182.063943,36.9259854 182.088093,36.9152845 C182.354443,36.8047084 182.647785,36.7440699 182.958172,36.7440699 C182.97877,36.7426432 182.998657,36.7426432 183.019256,36.7419297 C183.068974,36.7397896 183.116562,36.7426432 183.16557,36.7447833 C183.242991,36.7476369 183.32041,36.7519172 183.396408,36.764045 C183.419847,36.7676119 183.442575,36.7733191 183.466015,36.7775995 C183.552667,36.7947209 183.638609,36.814696 183.722422,36.8432317 C183.728815,36.8453718 183.734496,36.8482254 183.740889,36.8503656 C183.935503,36.9195648 184.120173,37.0180132 184.287796,37.1442839 C184.289216,37.1457108 184.290637,37.1471375 184.292058,37.1478509 C184.374448,37.2106295 184.453288,37.2798288 184.527867,37.3554486 C184.5371,37.365436 184.545623,37.376137 184.554857,37.3861244 C184.620202,37.4546103 184.682705,37.5273764 184.740238,37.6058498 C184.750891,37.6201177 184.760125,37.6358124 184.770068,37.6500803 C184.824759,37.7285536 184.877319,37.8098805 184.923487,37.8962011 C184.929879,37.9076155 184.934851,37.9204566 184.941243,37.9325843 C184.988121,38.0238987 185.031447,38.1187801 185.067671,38.2186552 C185.071932,38.2293561 185.075484,38.2407705 185.079036,38.2514714 C185.11668,38.357767 185.14438,38.4612092 185.167109,38.5632245 C185.174211,38.5967541 185.181314,38.6295701 185.186997,38.6630997 C185.199071,38.7351525 185.206173,38.8043517 185.211856,38.8728375 C185.215407,38.9249153 185.220379,38.976993 185.220379,39.0290708 C185.221089,39.0825754 185.217538,39.1346531 185.213277,39.1860175 C185.210435,39.2402355 185.206884,39.2944533 185.199071,39.3479579 C185.189837,39.4121634 185.175632,39.4728018 185.160717,39.5334404 C185.152193,39.5669698 185.145091,39.6012127 185.135146,39.6340289 C185.110997,39.7132156 185.081877,39.7888354 185.049914,39.8608882 C185.044232,39.8730158 185.039261,39.8851436 185.033578,39.8972712 C184.995934,39.9750312 184.954738,40.0485108 184.909281,40.11771 C184.903599,40.1269841 184.897207,40.1355449 184.891524,40.1441056 C184.845357,40.211878 184.796348,40.2760834 184.744498,40.3352952 C184.731714,40.3488496 184.717508,40.3616907 184.704013,40.3752452 C184.657136,40.4258962 184.608838,40.4751204 184.558408,40.5179241 C184.496407,40.581572 184.430308,40.6408114 184.360678,40.6954536 C184.335102,40.7173485 184.309172,40.7385263 184.282113,40.7576244 C184.307931,40.7393 184.332414,40.7192999 184.356451,40.6987612 C184.318929,40.7280455 184.280389,40.7559993 184.240918,40.7825932 C184.238787,40.78402 184.235946,40.7854467 184.233105,40.787587 C184.176082,40.8252673 184.117077,40.8597634 184.0563,40.8913904 C184.021948,40.9102118 183.987288,40.9280334 183.951839,40.9445336 C183.987185,40.9282794 184.021511,40.9104863 184.055275,40.8919233 C184.001308,40.9199687 183.945946,40.9457549 183.889335,40.9695024 C183.875129,40.9752095 183.861634,40.9809167 183.847429,40.9859104 C183.783838,41.011232 183.718852,41.0335503 183.65247,41.0527592 C183.694654,41.0411938 183.736203,41.02878 183.777112,41.0144463 C183.729311,41.031002 183.68151,41.0454233 183.632721,41.0583705 Z M173.011929,57.6921311 C174.519751,57.7522326 175.708141,58.1590452 176.549415,58.9042269 C177.452168,59.7039414 177.910291,60.8517929 177.910291,62.3163905 C177.910291,64.0634926 177.252582,65.5109688 176.009612,66.5004462 C174.778005,67.481363 172.992389,68 170.846667,68 C168.489284,68 166.652528,67.5519888 165.38825,66.6695204 C164.127523,65.7877654 163.48757,64.5115038 163.48757,62.8749781 C163.48757,61.5601929 164.065018,60.5828425 165.253299,59.8865706 L165.258271,59.8837167 L165.253299,59.8808628 C163.844835,59.0583201 163.160136,57.9190293 163.160136,56.3987868 C163.160136,54.9848408 163.732613,53.8241488 164.86052,52.9495276 L164.863362,52.9473871 L164.861231,52.9445332 C164.134625,51.9165333 163.781622,50.7993582 163.781622,49.5280898 C163.781622,47.7717136 164.370434,46.374889 165.580733,45.2570004 C166.785349,44.1448189 168.369249,43.5805244 170.289815,43.5805244 C171.065429,43.5805244 171.85809,43.7025147 172.645778,43.9429285 L178.760483,43.9429285 L178.760483,46.9605845 L176.108339,46.9605845 L176.11047,46.9655788 C176.479099,47.8066698 176.666611,48.669164 176.666611,49.5280898 C176.666611,51.2067064 176.072115,52.6213658 174.901592,53.7335477 C173.716863,54.8236138 172.165636,55.3764936 170.289815,55.3764936 C169.116452,55.3764936 168.068095,55.1610487 167.085082,54.7187442 L167.082952,54.7180308 L167.080821,54.7194577 C166.727818,55.074015 166.556643,55.5370071 166.556643,56.1355452 C166.556643,57.0907799 167.284668,57.6843236 168.457322,57.6843236 L172.613105,57.6843236 C172.74843,57.6843236 172.881377,57.6869275 173.011929,57.6921311 C172.917489,57.6881693 172.821736,57.6855602 172.724618,57.6843236 C172.821736,57.6855602 172.917489,57.6881693 173.011929,57.6921311 Z M159.927231,47.5669102 C159.951745,47.6139379 159.9766,47.6602543 159.998729,47.7096484 C159.9766,47.6602543 159.951745,47.6139379 159.927231,47.5669102 C160.034164,47.7951987 160.13188,48.0320657 160.220253,48.2771241 C160.247217,48.3443646 160.274275,48.411511 160.297752,48.482254 C160.274456,48.4125174 160.247635,48.3457309 160.220878,48.2788586 C160.315583,48.5416514 160.399545,48.8138607 160.472605,49.0950103 C160.492919,49.1642636 160.513576,49.2332836 160.530721,49.3055111 C160.513576,49.2332836 160.492919,49.1642636 160.472605,49.0950103 C160.711677,50.0150169 160.834006,51.0307601 160.834006,52.1255569 L160.834006,53.4695916 L148.760854,53.4695916 L148.760854,53.473159 C148.840404,54.7758161 149.319126,55.8780093 150.143748,56.659889 C150.964108,57.4374889 152.070707,57.8484034 153.34493,57.8484034 C154.353512,57.8484034 155.197311,57.6493664 155.8536,57.2562866 C156.507047,56.8653473 156.996423,56.2682362 157.3061,55.4813622 L160.701186,55.4813622 C159.634361,58.9969684 156.986479,60.9324064 153.246203,60.9324064 C150.858988,60.9324064 148.890123,60.1362582 147.392876,58.5660786 C145.916938,56.9844833 145.168314,54.8728375 145.168314,52.2896378 C145.168314,49.7613695 145.916938,47.6604248 147.392876,46.0460138 C148.857451,44.410915 150.826317,43.5805244 153.246203,43.5805244 C155.520483,43.5805244 157.421164,44.3424291 158.745105,45.7820577 C159.216969,46.2959253 159.612114,46.8941705 159.927231,47.5669102 Z M129.010436,45.0229841 C129.140018,45.1386846 129.262859,45.2610333 129.378841,45.3899163 C129.430252,45.4440715 129.482329,45.4978041 129.529613,45.5559127 C129.482264,45.4984004 129.431074,45.4451762 129.380343,45.391586 C129.502433,45.5273841 129.616916,45.6704299 129.723655,45.8205906 C129.769471,45.8822217 129.816132,45.9429143 129.857757,46.0082037 C129.816132,45.9429143 129.769471,45.8822217 129.723655,45.8205906 C129.840373,45.9847897 129.947832,46.1574961 130.045852,46.3385362 C130.077176,46.3922394 130.109523,46.4449122 130.137603,46.5018722 C130.109718,46.445858 130.077625,46.3932249 130.046506,46.3397434 C130.532306,47.2375579 130.786078,48.3402229 130.786078,49.6265381 L130.786078,60.570002 L127.717717,60.570002 L127.554356,58.4041382 L127.553645,58.3920101 L127.547963,58.4019977 C126.56424,60.0806133 124.92494,60.9324064 122.674807,60.9324064 C121.205971,60.9324064 119.967263,60.4936683 119.091501,59.662565 C118.205796,58.8243269 117.737728,57.6272518 117.737728,56.2011767 C117.737728,54.8778308 118.144002,53.7984657 118.943055,52.9901905 C119.742108,52.1840558 120.96448,51.617621 122.578211,51.3072941 L127.289425,50.4519346 L127.292266,50.4512212 L127.292266,49.6928841 C127.292266,48.696273 127.062139,47.9393618 126.608277,47.4428394 C126.157256,46.9484575 125.472557,46.6980564 124.572646,46.6980564 C123.73524,46.6980564 122.978803,46.9505979 122.44397,47.4093102 C121.887829,47.8865708 121.593068,48.5493135 121.592358,49.3269123 L118.229234,49.3269123 C118.293869,47.6718383 118.893335,46.3292317 120.061018,45.2241836 C121.211654,44.134118 122.730208,43.5805244 124.572646,43.5805244 C126.218739,43.5805244 127.572113,43.9634027 128.590793,44.6882403 C128.636129,44.7196323 128.68429,44.7486765 128.727719,44.7818798 C128.68429,44.7486765 128.636129,44.7196323 128.590793,44.6882403 C128.737674,44.792753 128.877598,44.904375 129.010436,45.0229841 C129.058772,45.0635372 129.107437,45.1033559 129.15246,45.146424 C129.107437,45.1033559 129.058772,45.0635372 129.010436,45.0229841 Z M128.171769,17.0676962 C128.193864,17.0919866 128.215498,17.1166873 128.236214,17.1421437 C128.216221,17.117575 128.195373,17.0937886 128.174079,17.070396 C128.302059,17.2200884 128.420815,17.3776197 128.530284,17.5428989 C128.541901,17.559603 128.553291,17.5765163 128.564358,17.5937221 C128.553291,17.5765163 128.541901,17.559603 128.530284,17.5428989 C128.63628,17.7029343 128.733571,17.8702339 128.822101,18.0447148 C128.829679,18.0585419 128.837076,18.0725049 128.844203,18.0866773 C128.837076,18.0725049 128.829679,18.0585419 128.822101,18.0447148 C128.830253,18.0607816 128.838331,18.0769093 128.846334,18.0930979 C128.856988,18.1137863 128.864091,18.136615 128.874035,18.1573034 C128.941975,18.2990305 129.00631,18.4431716 129.063171,18.593612 C129.067117,18.602416 129.070931,18.6112727 129.074331,18.620296 C129.070931,18.6112727 129.067117,18.602416 129.063171,18.593612 C129.068133,18.6067382 129.073037,18.6199124 129.077882,18.6331372 C129.089957,18.6652399 129.097769,18.7001962 129.109134,18.732299 C129.3627,19.4599608 129.493389,20.2867844 129.493389,21.2127698 L129.493389,32.1562332 L126.425028,32.1562332 L126.260955,29.9896557 L126.260245,29.9775281 L126.254563,29.9875156 C125.272261,31.6661316 123.63296,32.517924 121.382118,32.517924 C119.913282,32.517924 118.673863,32.0784734 117.798101,31.2487962 C116.913106,30.4105583 116.445039,29.2134831 116.445039,27.7874086 C116.445039,26.4640628 116.850602,25.3839843 117.650365,24.5764223 C118.449418,23.7695738 119.672501,23.2031389 121.284811,22.8920992 L125.996735,22.0374532 L125.999576,22.0367398 L125.999576,21.278402 C125.999576,20.2817906 125.76945,19.525593 125.315587,19.027644 C124.863857,18.5339754 124.179868,18.2835741 123.279956,18.2835741 C122.441839,18.2835741 121.686114,18.5361156 121.15128,18.9948279 C120.59514,19.4713751 120.300378,20.1348315 120.299668,20.9131443 L116.935834,20.9131443 C117.00118,19.2580702 117.600647,17.9161762 118.767618,16.8097022 C119.918254,15.7196362 121.436099,15.1667559 123.279956,15.1667559 C124.732948,15.1667559 125.95545,15.4571232 126.9299,16.0310962 C126.941145,16.0367707 126.952237,16.0426183 126.962701,16.0492242 C126.952237,16.0426183 126.941145,16.0367707 126.9299,16.0310962 C127.08389,16.1217991 127.231683,16.2195843 127.373214,16.324425 C127.394254,16.33852 127.415043,16.3529122 127.43503,16.3681113 C127.41592,16.3535785 127.396075,16.3398888 127.37598,16.3264753 C127.517832,16.4317068 127.653384,16.5440341 127.782566,16.6634301 C127.809007,16.6858295 127.834987,16.7086414 127.85977,16.7326556 C127.834996,16.7089289 127.809286,16.6862585 127.78321,16.6640255 C127.804404,16.6836206 127.825425,16.703406 127.846275,16.7233814 C127.96067,16.833093 128.069179,16.9478802 128.171769,17.0676962 Z M99.8655987,12.7203732 C99.8107826,12.7242439 99.7554586,12.726235 99.6997382,12.726235 C99.532115,12.726235 99.3666228,12.7076868 99.2046811,12.675584 C99.1947376,12.6734439 99.1847941,12.6720171 99.1755598,12.669877 C99.0150399,12.6363474 98.8587808,12.5878366 98.7103343,12.5257714 C98.7011011,12.5222044 98.6932875,12.5172106 98.6840543,12.5136436 C98.5391594,12.450865 98.4013667,12.3752452 98.2735186,12.2874978 C98.2685463,12.2846442 98.2635751,12.2817906 98.2593131,12.2782236 C98.1286237,12.1876226 98.0100088,12.0834671 97.9034683,11.9686106 C97.8942351,11.9579097 97.8857123,11.9472088 97.876478,11.9372213 C97.8040311,11.855181 97.740107,11.7695737 97.6839955,11.6796861 C97.6712107,11.6597111 97.6591362,11.6397361 97.6470617,11.619761 C97.5966328,11.532727 97.555437,11.4421259 97.5206332,11.3493846 C97.513531,11.3294097 97.5042978,11.3108614 97.4979049,11.2908864 C97.4865417,11.2568659 97.4761195,11.2225079 97.4667215,11.1878121 C97.4709261,11.2079195 97.4750493,11.228068 97.4808581,11.2473694 C97.4743922,11.2269555 97.4703284,11.2062397 97.466128,11.1856148 C97.445274,11.1082401 97.4295186,11.0291876 97.4197753,10.9484573 C97.4197753,10.9470305 97.419065,10.9456037 97.419065,10.9441769 C97.4041492,10.819333 97.4020182,10.6916355 97.4133834,10.5610844 C97.4133834,9.95755301 97.6442204,9.42108082 98.0185327,9.02300694 C98.0334474,9.00731233 98.0448126,8.98876402 98.0597274,8.97378278 C98.129334,8.9038702 98.2088842,8.8453719 98.2870138,8.78544674 C98.3225269,8.75905123 98.3537791,8.72694843 98.3900026,8.70197967 C98.4865995,8.63777417 98.591009,8.58569642 98.6968391,8.53718564 C98.7202778,8.52648474 98.7408751,8.51079014 98.7650252,8.50151598 C99.0306649,8.39022655 99.3247167,8.32887465 99.6351038,8.32887465 C99.6571229,8.3274478 99.6798512,8.3274478 99.7018692,8.32673443 C99.7459063,8.32602106 99.7878123,8.32816118 99.8304277,8.32958802 C99.9135295,8.33244162 99.9973416,8.33743533 100.079023,8.35027645 C100.096068,8.35313004 100.112405,8.35741038 100.129452,8.36097735 C100.222497,8.37809881 100.314122,8.40021398 100.402905,8.43088993 L100.404326,8.43088993 C100.702638,8.53361868 100.975381,8.7091136 101.204799,8.94168009 C101.213322,8.95024076 101.221135,8.96022829 101.229658,8.96950244 C101.295713,9.03870165 101.358927,9.11218119 101.417169,9.19136793 C101.427113,9.20563579 101.436346,9.22061713 101.44629,9.23559837 C101.501691,9.31335825 101.55354,9.39468521 101.599708,9.48171924 C101.6061,9.49384699 101.611783,9.50597463 101.618175,9.51810238 C101.665053,9.60941676 101.707668,9.7042982 101.744603,9.80417336 C101.748864,9.81487426 101.751705,9.82557516 101.755967,9.83627606 C101.793612,9.94328514 101.821312,10.0474407 101.84404,10.149456 C101.850433,10.1822722 101.857536,10.2150883 101.863218,10.2479044 C101.876003,10.3199572 101.883105,10.3905832 101.888078,10.4604958 C101.892338,10.5111468 101.8966,10.5617978 101.897311,10.6131621 C101.897311,10.6680935 101.893759,10.721598 101.890208,10.7751026 C101.886657,10.8278937 101.883105,10.8799714 101.876003,10.9327627 C101.866058,10.9976814 101.851854,11.0604602 101.836228,11.1225255 C101.828414,11.1546281 101.822022,11.1867308 101.812079,11.2188336 C101.787929,11.2987337 101.758809,11.3757803 101.725426,11.4485464 C101.720454,11.4599608 101.715482,11.4706617 101.71051,11.4813626 C101.672866,11.5605493 101.63096,11.6347423 101.585503,11.7046549 C101.57982,11.7125022 101.574849,11.7203495 101.569166,11.7281968 C101.522999,11.7973962 101.47328,11.8616016 101.42072,11.9208132 C101.409356,11.9336544 101.395861,11.9457821 101.384496,11.9579097 C101.335488,12.0092741 101.28648,12.0599251 101.23534,12.1027287 C101.172125,12.1680898 101.10465,12.2285623 101.033515,12.2841464 C101.009132,12.3049399 100.984309,12.3249496 100.958336,12.3431425 C100.984048,12.3250305 101.008506,12.3053416 101.032371,12.2850396 C100.995168,12.3140658 100.956966,12.3417564 100.91785,12.3681113 C100.915009,12.3702515 100.912168,12.3716782 100.908616,12.3738185 C100.854267,12.4097321 100.797937,12.4429338 100.739989,12.4734236 C100.70359,12.4936519 100.666771,12.5130375 100.628771,12.5300517 C100.663268,12.5144171 100.697018,12.4967802 100.730611,12.4783271 C100.676412,12.5064878 100.620822,12.53229 100.564136,12.5557339 C100.551352,12.561441 100.538567,12.5664348 100.525782,12.5714285 C100.461731,12.5963434 100.39633,12.6189322 100.329577,12.6384877 C100.371329,12.6268625 100.412655,12.6143851 100.453334,12.5999644 C100.412655,12.6143851 100.371329,12.6268625 100.329577,12.6384877 C100.26827,12.656448 100.205823,12.6718497 100.142237,12.6841448 C100.140106,12.6841448 100.137975,12.6848582 100.136554,12.6855716 C100.049213,12.7018824 99.9599729,12.7135623 99.8693381,12.7201063 C99.9403862,12.7157907 100.011338,12.7093207 100.081863,12.6976993 C100.010994,12.7095628 99.9387883,12.7160581 99.8655987,12.7203732 Z M48.6754395,9.16711254 L44.410985,4.87890135 L35.8955713,13.4446228 L40.1593154,17.7328339 L48.6754395,9.16711254 Z M31.0096311,40.3945069 L9.12979671,18.3841627 L4.86605237,22.6730873 L26.7465973,44.682718 L31.0096311,40.3945069 Z M11.5546548,15.9443552 L20.0579944,24.497949 L24.3217388,20.2090244 L15.817689,11.6561442 L11.5546548,15.9443552 Z M22.4942168,26.9491707 L26.7579615,31.2380953 L31.0245469,26.9434635 L26.7629327,22.6559658 L22.4942168,26.9491707 Z M29.1835296,33.6779026 L51.0740173,55.6975206 L55.3327902,51.4128772 L33.4458531,29.3896914 L29.1835296,33.6779026 Z M37.6982331,47.1246654 L33.4351993,42.835741 L18.2262108,58.1316214 L22.4899552,62.4198321 L37.6982331,47.1246654 Z M57.8641885,18.3641876 L42.6537799,33.682183 L46.9040289,37.9582665 L62.1250924,22.6523988 L57.8641885,18.3641876 Z M62.0199726,44.6748707 L53.5500155,36.1533797 L49.285561,40.4430177 L57.7569377,48.9637954 L62.0199726,44.6748707 Z M17.6246131,40.3859461 L13.3622892,36.0970216 L4.81846443,44.6919921 L9.08149845,48.9809168 L17.6246131,40.3859461 Z M66.9719667,22.6552523 L56.0068358,33.682183 L66.9030714,44.6434814 L51.1031386,60.5485998 L40.1543431,49.5323706 L35.89273,53.8191545 L46.8195074,64.8275374 L44.3939383,67.2666315 L44.369079,67.2416619 L33.4671618,56.2582486 L22.5212071,67.2666315 L13.4077465,58.099518 L24.3529906,47.0889957 L20.0899566,42.8007847 L9.11346059,53.8270017 L0,44.6598894 L10.968683,33.6258249 L0.047588044,22.6409845 L15.8496511,6.74514001 L40.2097443,31.239522 L44.4734884,26.9513108 L20.1126851,2.43909399 L22.5382536,0 L22.563113,0.0249687631 L33.4707124,11.0048154 L44.410985,0 L53.5258665,9.16711254 L42.5848835,20.1719279 L46.8479173,24.4608525 L57.8073677,13.436062 L66.9719667,22.6552523 Z M91.7127648,9.15141782 L95.6313179,9.15141782 L86.7501158,32.1562332 L83.3521894,32.1562332 L74.4390247,9.15141782 L78.3582882,9.15141782 L84.5575156,25.5195292 L85.015639,27.0647405 L85.0191906,27.0761548 L85.5135374,25.5202426 L91.7127648,9.15141782 Z M97.9041786,32.1562332 L97.9041786,15.5284466 L101.36532,15.5284466 L101.36532,32.1562332 L97.9041786,32.1562332 Z M97.5618289,11.4542536 C97.5788757,11.4913501 97.5945018,11.52916 97.6136785,11.5648297 C97.5945018,11.5284465 97.5781654,11.4913501 97.5618289,11.4542536 Z M97.7237706,11.7453183 C97.7500505,11.7838417 97.7784615,11.8209381 97.8082931,11.8580346 C97.7784615,11.8209381 97.7500505,11.7838417 97.7237706,11.7453183 Z M98.7607632,12.5486 C98.8751162,12.5942572 98.9937312,12.6306402 99.1137668,12.6591761 C98.9930208,12.6306402 98.8751162,12.5942572 98.7607632,12.5486 Z M98.2181174,12.251828 C98.1165492,12.1783485 98.0235039,12.0963082 97.9375618,12.0078474 C98.0235039,12.0963082 98.1165492,12.1783485 98.2181174,12.251828 Z M110.700383,28.619226 C110.735187,28.659176 110.779933,28.6869984 110.818998,28.7226681 C110.779933,28.6869984 110.735187,28.6584626 110.700383,28.619226 Z M108.607221,31.6775459 C108.350814,31.5227394 108.120687,31.3436775 107.91755,31.1375067 C107.715124,30.9320492 107.538977,30.701623 107.38911,30.4455146 C107.384138,30.4376672 107.380586,30.4283931 107.375615,30.4205457 C107.306009,30.2992687 107.241374,30.1737115 107.183132,30.0403068 C107.17816,30.0288925 107.173898,30.015338 107.168926,30.0039237 C106.867772,29.3005172 106.723588,28.4365972 106.733532,27.3929018 L106.798877,18.7465668 L106.798877,18.7429999 L103.886773,18.7429999 L103.886773,15.5284466 L106.798877,15.5284466 L106.832259,11.4521134 L110.326072,11.4521134 L110.293399,15.5248797 L110.293399,15.5284466 L114.317784,15.5284466 L114.317784,18.7429999 L110.260727,18.7429999 L110.194672,26.6374175 C110.194672,27.6054931 110.346669,28.2140182 110.686179,28.6113786 C111.03279,29.015873 111.595322,29.204209 112.456169,29.204209 C113.135896,29.204209 113.762353,29.1164616 114.317784,28.9423934 L114.317784,32.0249688 C113.668597,32.2646692 112.811303,32.3866595 111.768628,32.3866595 C110.887895,32.3866595 110.13359,32.2846442 109.495057,32.07776 C109.489376,32.0756198 109.484403,32.0734796 109.478722,32.0713394 C109.326013,32.0214018 109.179698,31.9657571 109.039775,31.9036918 C109.029121,31.8986981 109.019887,31.8929909 109.009944,31.8887106 C108.874993,31.8273587 108.745723,31.7610131 108.623558,31.6889603 C108.617875,31.6853933 108.612903,31.6811129 108.607221,31.6775459 Z M111.157087,28.9516676 C111.107367,28.9274122 111.050547,28.908864 111.005089,28.8803281 C111.050547,28.908864 111.107367,28.9274122 111.157087,28.9516676 Z M125.999576,25.2562867 L125.999576,24.6598894 L122.036276,25.5152488 C120.644859,25.8077403 119.939562,26.5175674 119.939562,27.6226146 C119.939562,28.7990013 120.784782,29.5002675 122.200347,29.5002675 C123.541335,29.5002675 124.526478,28.9730693 125.213309,27.8872837 C125.742459,27.1239523 125.999576,26.2635991 125.999576,25.2562867 Z M85.2819901,37.1378633 C87.3850966,37.1378633 89.0584896,37.7128589 90.2574239,38.8464419 C90.7134163,39.2780453 91.0905688,39.7809881 91.3888825,40.3545568 C91.4052179,40.3859461 91.4172924,40.420189 91.4329185,40.450865 C91.5138893,40.6135188 91.5920189,40.7783128 91.6602049,40.9516675 C91.6751207,40.9880507 91.6850642,41.0280008 91.6992697,41.0643838 C92.001134,41.8676654 92.1758604,42.7808097 92.2149252,43.8045301 L88.4916949,43.8045301 C88.459023,41.7149991 87.1911924,40.4180489 85.1839725,40.4180489 C84.2364736,40.4180489 83.4473647,40.6976993 82.9025889,41.2291778 C82.3592328,41.7585162 82.071574,42.5254146 82.071574,43.4464063 C82.071574,44.3959336 82.3720176,45.0964869 82.9892413,45.5858745 C83.5979422,46.068843 84.7428959,46.6331373 86.3928503,47.2637777 C88.7388683,48.0699124 90.43357,49.0208663 91.4300772,50.0902447 C92.4280051,51.0918492 92.9344274,52.4729804 92.9344274,54.1958263 C92.9344274,56.3003385 92.2419155,57.980382 90.8746476,59.1895842 C89.5194543,60.3895132 87.7366795,60.9980379 85.5767511,60.9980379 C84.3636124,60.9980379 83.2577235,60.823257 82.2903375,60.4808278 C81.3485201,60.1469593 80.5331313,59.6518639 79.8697406,59.0090954 C78.5607153,57.7435349 77.8419223,55.8979846 77.7929141,53.6736219 L81.4827612,53.6736219 C81.5331901,54.9848408 81.913184,56.0021407 82.6127991,56.6969856 C83.3166753,57.3961124 84.3245477,57.7499551 85.609424,57.7499551 C86.733069,57.7499551 87.6628109,57.4367754 88.298502,56.8446586 C88.9178567,56.2689497 89.2445803,55.4435531 89.2445803,54.4597825 C89.2445803,52.7390759 88.0712156,51.7403244 84.7599416,50.642411 C82.5943317,49.894774 80.965685,48.9994651 79.9187489,47.9800248 C78.8995134,46.9555912 78.3817269,45.5295172 78.3817269,43.7417513 C78.3817269,41.812734 79.0088951,40.2211521 80.2461828,39.0112359 C80.8648272,38.388443 81.6006658,37.9161762 82.4323911,37.6058498 C83.2662463,37.2955234 84.2251094,37.1378633 85.2819901,37.1378633 Z M88.3290439,60.6085255 C88.3936783,60.5885503 88.461154,60.5735683 88.5243677,60.5514537 C88.461154,60.5735683 88.3936783,60.5885503 88.3290439,60.6085255 Z M89.037182,60.3502762 C89.079087,60.3317279 89.1245447,60.3181739 89.1664507,60.2989121 C89.1245447,60.3174604 89.079087,60.3317279 89.037182,60.3502762 Z M98.9433022,60.0913144 C98.687606,59.9365077 98.4574783,59.7574459 98.2543419,59.5512751 C98.0512045,59.3458178 97.8750574,59.115391 97.7251912,58.8592831 C97.7209293,58.8521494 97.718088,58.8443022 97.7138271,58.8371674 C97.6435101,58.7151775 97.5781654,58.5881932 97.5192136,58.4540753 C97.5149516,58.4433742 97.5114,58.4319596 97.5064288,58.420546 C97.2045645,57.7171394 97.0603789,56.8517923 97.0703234,55.80667 L97.1349578,47.1610485 L97.1349578,47.1574822 L94.2235657,47.1574822 L94.2235657,43.9429285 L97.1349578,43.9429285 L97.16834,39.8658819 L100.662153,39.8658819 L100.629481,43.9393615 L100.629481,43.9429285 L104.653864,43.9429285 L104.653864,47.1574822 L100.596808,47.1574822 L100.531464,55.0511858 C100.531464,56.019262 100.683462,56.6292137 101.02297,57.0258608 C101.36887,57.4310686 101.931403,57.6186911 102.79225,57.6186911 C103.471977,57.6186911 104.098434,57.5309439 104.653864,57.3568754 L104.653864,60.4394503 C104.006099,60.6791514 103.148095,60.8004278 102.104709,60.8004278 C101.224686,60.8004278 100.46967,60.6984132 99.831138,60.4915289 C99.8254564,60.490102 99.8204842,60.4872481 99.8148026,60.4858211 C99.6620941,60.4351705 99.5157786,60.3795256 99.3765663,60.3174604 C99.3659124,60.3131796 99.3566793,60.3067593 99.3460244,60.3024795 C99.2117844,60.2411268 99.0825145,60.1747818 98.960349,60.102729 C98.9546664,60.0991616 98.9489848,60.0948818 98.9433022,60.0913144 Z M101.037176,57.033708 C101.070558,57.0722316 101.114595,57.0993406 101.151529,57.1342967 C101.114595,57.100053 101.070558,57.0722316 101.037176,57.033708 Z M101.490327,57.3647226 C101.442029,57.3404675 101.385917,57.3233462 101.34188,57.2948102 C101.386627,57.3233462 101.442029,57.3404675 101.490327,57.3647226 Z M111.189759,46.7679687 C111.510801,45.8855003 112.094641,45.1471375 112.877358,44.6327805 C113.307781,44.3502764 113.790054,44.137685 114.319914,43.9950063 C114.345484,43.9878723 114.374605,43.9850187 114.400885,43.9785982 C114.911569,43.8487604 115.462737,43.7788479 116.057942,43.7788479 L116.057942,47.2894597 C114.700619,47.2901732 113.588337,47.6661316 112.754482,48.4073483 C111.819057,49.1856606 111.347439,50.3370785 111.313346,51.9279468 L111.313346,60.570002 L107.852205,60.570002 L107.852205,43.9429285 L110.888605,43.9429285 L111.183367,46.7672553 L111.184788,46.7829497 L111.189759,46.7679687 Z M127.292266,53.6700556 L127.292266,53.0743714 L123.328966,53.9290174 C121.937548,54.2222218 121.232251,54.9320487 121.232251,56.0363834 C121.232251,57.2127698 122.078182,57.914036 123.493748,57.914036 C124.834025,57.914036 125.819879,57.3868383 126.505998,56.3024789 C127.035148,55.5377206 127.292266,54.6773678 127.292266,53.6700556 Z M139.696403,57.033708 C139.732626,57.0750844 139.779503,57.1050473 139.820699,57.1421439 C139.779503,57.1050473 139.732626,57.0750844 139.696403,57.033708 Z M143.313092,60.4394503 C142.665327,60.6791514 141.807322,60.8004278 140.763936,60.8004278 C139.884623,60.8004278 139.130318,60.6984132 138.492496,60.4922414 C138.481132,60.488675 138.471188,60.4836807 138.459824,60.4801143 C138.313509,60.4316031 138.172165,60.3780986 138.037924,60.3181739 C138.021588,60.3110402 138.007382,60.3024795 137.991757,60.2953447 C137.863198,60.2361335 137.738901,60.1733548 137.621707,60.1034425 C137.610343,60.0970212 137.601109,60.0898874 137.590455,60.0827537 C137.470419,60.0099874 137.354646,59.9322279 137.246685,59.848047 C137.241713,59.8437672 137.237451,59.8394863 137.232479,59.835919 C137.120257,59.7474583 137.014427,59.6540043 136.914279,59.5527021 C136.910728,59.5491347 136.907886,59.5448549 136.904335,59.5412875 C136.807029,59.4421257 136.715404,59.3372572 136.630881,59.2259673 C136.62449,59.2181201 136.618807,59.2081325 136.612415,59.2002853 C136.532155,59.0925628 136.456156,58.9805595 136.386549,58.8628505 C136.375185,58.8435887 136.365951,58.8221865 136.355297,58.8022112 C136.292794,58.6916359 136.233132,58.5782056 136.180572,58.4583561 C136.168496,58.4305337 136.159263,58.3998573 136.147188,58.3720348 C136.098891,58.2550382 136.052012,58.1359012 136.011527,58.0103439 C136.005845,57.9903697 136.001583,57.9689674 135.995191,57.9489922 C135.810521,57.339754 135.721028,56.6299271 135.72884,55.80667 L135.794185,47.1610485 L135.794185,47.1574822 L132.882083,47.1574822 L132.882083,43.9429285 L135.794185,43.9429285 L135.827567,39.8658819 L139.32138,39.8658819 L139.288708,43.9393615 L139.288708,43.9429285 L143.313092,43.9429285 L143.313092,47.1574822 L139.256035,47.1574822 L139.190691,55.0511858 C139.190691,56.0199755 139.341978,56.6292137 139.682197,57.0258608 C140.028098,57.4310686 140.590631,57.6186911 141.451477,57.6186911 C142.131204,57.6186911 142.757662,57.5309439 143.313092,57.3568754 L143.313092,60.4394503 Z M140.161628,57.3704294 C140.108358,57.3447473 140.048696,57.3247731 140.001108,57.2948102 C140.048696,57.3254855 140.108358,57.3447473 140.161628,57.3704294 Z M158.004294,59.5120381 C158.062537,59.4685212 158.117227,59.4207246 158.174048,59.3757807 C158.117227,59.4207246 158.062537,59.4685212 158.004294,59.5120381 Z M157.514918,59.8409133 C157.584525,59.7981099 157.64987,59.7510257 157.717346,59.7060818 C157.64987,59.7510257 157.584525,59.7981099 157.514918,59.8409133 Z M156.450936,60.369538 C156.505626,60.3474233 156.556766,60.3217402 156.610746,60.2989121 C156.557476,60.3217402 156.505626,60.3474233 156.450936,60.369538 Z M156.997843,60.1262706 C157.06674,60.0920279 157.131374,60.0527908 157.198849,60.0164077 C157.131374,60.0527908 157.066029,60.0920279 156.997843,60.1262706 Z M158.463128,59.1403606 C158.504323,59.1039774 158.541968,59.0640269 158.582453,59.0262168 C158.541968,59.0640269 158.504323,59.1039774 158.463128,59.1403606 Z M148.793527,50.7444267 L148.792817,50.7479941 L157.340193,50.7479941 L157.340193,50.7444267 C157.324567,49.5202426 156.925395,48.4851079 156.186006,47.7503124 C155.448747,47.0183698 154.421698,46.6317103 153.21353,46.6317103 C152.008204,46.6317103 150.951323,47.0312114 150.156533,47.787409 C149.378788,48.5271978 148.90717,49.549492 148.793527,50.7444267 Z M168.016955,47.2901732 C167.467917,47.8459068 167.178127,48.6199393 167.178127,49.5280898 C167.178127,50.3813088 167.479992,51.1567682 168.02974,51.7125019 C168.289699,51.9757446 168.603638,52.176922 168.949538,52.324594 C168.969426,52.3331546 168.985762,52.3452827 169.005649,52.3531299 C169.387774,52.5065097 169.810384,52.5885501 170.257144,52.5885501 C171.14569,52.5885501 171.91065,52.2860714 172.46821,51.7125019 C173.006594,51.1589087 173.303487,50.3834492 173.303487,49.5280898 C173.303487,47.6782596 172.078983,46.4341002 170.257144,46.4341002 C169.344448,46.4341002 168.570965,46.7301586 168.016955,47.2901732 Z M167.068036,61.782058 C166.970019,62.038167 166.916038,62.3263782 166.916038,62.6452647 C166.916038,63.4713747 167.26407,64.1105758 167.94877,64.5421791 C168.619264,64.9652217 169.594462,65.1799532 170.846667,65.1799532 C172.066198,65.1799532 172.993099,64.9552341 173.601089,64.5129307 C174.206949,64.0713398 174.514495,63.3986084 174.514495,62.5132871 C174.514495,61.1614053 173.635182,60.5043694 171.828258,60.5043694 L168.9815,60.5043694 C168.536872,60.5407526 168.159009,60.6641694 167.847911,60.8539323 C167.829445,60.8653469 167.808846,60.8739076 167.79109,60.8853222 C167.713671,60.9359727 167.645485,60.995185 167.578009,61.0551098 C167.548178,61.0815053 167.514795,61.103621 167.486385,61.1321559 C167.429563,61.1892278 167.381975,61.2548603 167.332967,61.3190659 C167.303845,61.356875 167.271173,61.3918311 167.244893,61.4324951 C167.196595,61.5074018 167.159661,61.5894423 167.122017,61.6714817 C167.10497,61.7092918 167.082952,61.742821 167.068036,61.782058 Z M163.579194,54.4733364 C163.559307,54.5140004 163.545102,54.5575173 163.526635,54.5988937 C163.545102,54.5575173 163.559307,54.5140004 163.579194,54.4733364 Z M181.227957,60.570002 L181.227957,43.9429285 L184.689097,43.9429285 L184.689097,60.570002 L181.227957,60.570002 Z M180.884187,39.8658819 C180.901234,39.9044052 180.91828,39.9429285 180.937457,39.9800249 C180.91757,39.9429285 180.901234,39.9044052 180.884187,39.8658819 Z M181.046128,40.1576601 C181.073119,40.1976102 181.10224,40.2354201 181.132781,40.2732298 C181.10224,40.2354201 181.073119,40.1968967 181.046128,40.1576601 Z M182.082411,40.9623685 C182.198184,41.0080257 182.31751,41.0444087 182.438966,41.0729446 C182.31751,41.0444087 182.198184,41.0080257 182.082411,40.9623685 Z M181.541896,40.6670234 C181.440328,40.592117 181.346572,40.5100767 181.25992,40.4209024 C181.346572,40.5100767 181.440328,40.5928304 181.541896,40.6670234 Z M183.108039,41.1392902 C183.208187,41.1357232 183.307625,41.1278759 183.406352,41.1114678 C183.309046,41.1278759 183.209607,41.1357232 183.108039,41.1392902 Z M200.127503,59.8387729 C200.184324,59.8038167 200.237595,59.7645796 200.293706,59.7281965 C200.237595,59.7645796 200.184324,59.8038167 200.127503,59.8387729 Z M200.616878,59.5091852 C200.663046,59.475655 200.704951,59.4378459 200.749699,59.4028897 C200.704951,59.4378459 200.663046,59.475655 200.616878,59.5091852 Z M191.40327,50.7444267 L191.40256,50.7479941 L199.949936,50.7479941 L199.949936,50.7444267 C199.93431,49.5202426 199.535139,48.4851079 198.795749,47.7503124 C198.05849,47.0183698 197.031441,46.6317103 195.823983,46.6317103 C194.617947,46.6317103 193.561067,47.0312114 192.766276,47.787409 C191.988531,48.5271978 191.516913,49.549492 191.40327,50.7444267 Z M199.06281,60.368111 C199.105426,60.3517031 199.145911,60.3310144 199.187817,60.3131796 C199.145911,60.3310144 199.105426,60.3517031 199.06281,60.368111 Z M199.609717,60.1248436 C199.666539,60.0963077 199.720519,60.0634919 199.77663,60.033529 C199.720519,60.0634919 199.666539,60.0963077 199.609717,60.1248436 Z M207.404918,59.4827897 C206.341646,58.5496697 205.754254,57.1899417 205.704535,55.5477082 L209.199057,55.5477082 C209.215394,56.3024789 209.481745,56.9238451 209.96899,57.3426079 C210.453393,57.7592293 211.161531,57.9796686 212.015984,57.9796686 C212.609059,57.9796686 213.109799,57.873373 213.504708,57.675763 C213.521044,57.6679147 213.533829,57.6565012 213.549455,57.6479405 C213.660257,57.5894417 213.765377,57.5259495 213.857712,57.4524698 C213.872627,57.4403428 213.883282,57.4253608 213.897487,57.4132338 C214.288135,57.0815057 214.505477,56.6170856 214.505477,56.0363834 C214.505477,56.0085609 214.500505,55.9871587 214.499795,55.9600497 C214.496954,55.847334 214.48843,55.738898 214.472805,55.6368823 C214.465702,55.5890846 214.455758,55.5427149 214.445815,55.4970576 C214.425216,55.405743 214.398936,55.3172823 214.364844,55.233815 C214.347087,55.1902981 214.325779,55.1474947 214.304471,55.1068307 C214.266116,55.031924 214.221369,54.9598712 214.16952,54.8913858 C214.141109,54.8550026 214.109857,54.8186195 214.077895,54.7843768 C214.018942,54.7187442 213.952177,54.6559656 213.877599,54.5960409 C213.859842,54.5817724 213.848478,54.564651 213.829301,54.5503836 C213.347738,54.1865522 212.555789,53.9033353 211.263809,53.6336724 C207.642148,52.8653467 206.097314,51.4214378 206.097314,48.8054214 C206.097314,47.3465316 206.588819,46.1423217 207.601663,45.1250218 C208.620898,44.1005885 210.05138,43.5805244 211.851912,43.5805244 C213.489082,43.5805244 214.853509,44.0670591 215.907547,45.027287 C216.980054,45.973961 217.541166,47.255217 217.575259,48.8339573 L214.113408,48.8339573 C214.079316,47.3279833 213.296599,46.5653643 211.786567,46.5653643 C211.268071,46.5653643 210.826994,46.6766542 210.476831,46.8785451 C210.469019,46.8828249 210.462626,46.8892452 210.454813,46.8942395 C210.348983,46.9570182 210.250966,47.0269305 210.163603,47.1068305 C210.161472,47.108971 210.160051,47.1118249 210.15792,47.1132518 C209.794973,47.4485462 209.591127,47.922954 209.591127,48.5086495 C209.591127,49.6985909 210.267302,50.1929729 212.604087,50.7144638 C214.597101,51.1153918 215.922463,51.6739794 216.774075,52.4729804 C217.610773,53.2570006 218,54.2850005 218,55.7082217 C218,57.3055113 217.411898,58.6388438 216.300326,59.5641167 C215.224979,60.4594256 213.72063,60.9324064 211.95064,60.9324064 C210.058483,60.9324064 208.486658,60.4308897 207.404918,59.4827897 Z M135.061188,31.7096487 C134.88433,31.5848047 134.72239,31.4399857 134.569681,31.2816122 C134.53843,31.2487962 134.504336,31.2181202 134.474505,31.1838773 C134.333872,31.0255038 134.208865,30.8478688 134.093091,30.6588194 C134.06326,30.6103086 134.032008,30.5639379 134.003597,30.5132869 C133.897766,30.3206705 133.807562,30.109506 133.727302,29.8876405 C133.705284,29.8284288 133.681135,29.7713572 133.661957,29.7100053 C133.586669,29.4731585 133.529138,29.2177635 133.48439,28.9502408 C133.473737,28.8896023 133.461662,28.831104 133.453138,28.7690387 C133.412653,28.4794008 133.392055,28.1705011 133.388504,27.8466203 C133.387794,27.8159443 133.385663,27.7866952 133.385663,27.7560193 L133.395607,8.164794 L136.846093,8.164794 L136.846093,26.9612983 C136.846093,27.8530408 137.003063,28.4016408 137.355356,28.7397896 C137.363879,28.7476369 137.376664,28.7526306 137.385188,28.7611914 C137.396552,28.7711789 137.411467,28.7783128 137.423542,28.7883004 C137.504513,28.8560727 137.594717,28.9174246 137.699126,28.9680756 C137.729668,28.9830569 137.765892,28.9930444 137.798564,29.0065989 C137.890899,29.0444088 137.988916,29.0800784 138.099717,29.106474 C138.143044,29.1164616 138.192052,29.1228821 138.23751,29.1307294 C138.351863,29.1521312 138.471188,29.1713929 138.60543,29.1828072 C138.645205,29.1856608 138.689951,29.1863742 138.731147,29.1885144 C138.847631,29.1949349 138.956302,29.2049225 139.086992,29.2049225 C139.132449,29.2049225 139.179326,29.204209 139.226914,29.2034956 L139.226914,32.2461209 C139.173645,32.255395 138.402292,32.3916533 137.606081,32.3916533 C137.537895,32.3916533 137.47113,32.3909399 137.405785,32.3887997 C137.377374,32.3887997 137.351804,32.3859461 137.324104,32.3852328 C137.087584,32.3816658 136.859588,32.3616908 136.638695,32.3267345 C136.600341,32.3203139 136.559145,32.3174603 136.52079,32.3103264 C136.283561,32.2660959 136.058405,32.1997503 135.842483,32.1184234 C135.811942,32.1062957 135.778559,32.0970216 135.748017,32.0848939 C135.537068,31.9978598 135.338903,31.8901373 135.152102,31.7674335 C135.12227,31.7474586 135.090309,31.7303371 135.061188,31.7096487 Z" style="--darkreader-inline-fill: currentColor;" data-darkreader-inline-fill=""></path>
</svg>